<svg xmlns="http://www.w3.org/2000/svg" xmlns:xlink="http://www.w3.org/1999/xlink" version="1.1" width="1000" height="1000" viewBox="0 0 1000 1000" xml:space="preserve">
<desc>Created with Fabric.js 3.5.0</desc>
<defs>
</defs>
<rect x="0" y="0" width="100%" height="100%" fill="#ffffff"/>
<g transform="matrix(-0.5875 0.5909 0.5909 0.5875 462.943 699.4206)" id="28616">
<g style="" vector-effect="non-scaling-stroke">
		<g transform="matrix(1 0 0 1 410.735 -193.5001)">
<path style="stroke: none; stroke-width: 1; stroke-dasharray: none; stroke-linecap: butt; stroke-dashoffset: 0; stroke-linejoin: miter; stroke-miterlimit: 4; is-custom-font: none; font-file-url: none; fill: rgb(255,250,114); fill-rule: nonzero; opacity: 1;" transform=" translate(-1010.735, -96.4999)" d="M 734.567 34.372 c -28.692 61.724 -23.266 100.422 16.275 116.094 c 59.313 23.508 200.347 32.911 259.299 83.906 c 58.95 50.994 238.697 11.572 269.438 -75.95 C 1310.32 70.9 1365.669 -64 1073.808 -64 c -194.576 0 -307.654 32.79 -339.24 98.372 h -0.001 z" stroke-linecap="round"/>
</g>
		<g transform="matrix(2.8 0 1.6166 2.8 586.0578 40.1997)">
<path style="stroke: none; stroke-width: 1; stroke-dasharray: none; stroke-linecap: butt; stroke-dashoffset: 0; stroke-linejoin: miter; stroke-miterlimit: 4; is-custom-font: none; font-file-url: none; fill: rgb(214,242,255); fill-rule: nonzero; opacity: 1;" transform=" translate(-1010.735, -96.4999)" d="M 734.567 34.372 c -28.692 61.724 -23.266 100.422 16.275 116.094 c 59.313 23.508 200.347 32.911 259.299 83.906 c 58.95 50.994 238.697 11.572 269.438 -75.95 C 1310.32 70.9 1365.669 -64 1073.808 -64 c -194.576 0 -307.654 32.79 -339.24 98.372 h -0.001 z" stroke-linecap="round"/>
</g>
		<g transform="matrix(2.65 0 1.3795 2.65 561.5695 20.7247)">
<path style="stroke: none; stroke-width: 1; stroke-dasharray: none; stroke-linecap: butt; stroke-dashoffset: 0; stroke-linejoin: miter; stroke-miterlimit: 4; is-custom-font: none; font-file-url: none; fill: rgb(199,225,243); fill-rule: nonzero; opacity: 1;" transform=" translate(-1010.735, -96.4999)" d="M 734.567 34.372 c -28.692 61.724 -23.266 100.422 16.275 116.094 c 59.313 23.508 200.347 32.911 259.299 83.906 c 58.95 50.994 238.697 11.572 269.438 -75.95 C 1310.32 70.9 1365.669 -64 1073.808 -64 c -194.576 0 -307.654 32.79 -339.24 98.372 h -0.001 z" stroke-linecap="round"/>
</g>
		<g transform="matrix(2.5 0 1.1658 2.5 539.334 1.2497)">
<path style="stroke: none; stroke-width: 1; stroke-dasharray: none; stroke-linecap: butt; stroke-dashoffset: 0; stroke-linejoin: miter; stroke-miterlimit: 4; is-custom-font: none; font-file-url: none; fill: rgb(184,207,230); fill-rule: nonzero; opacity: 1;" transform=" translate(-1010.735, -96.4999)" d="M 734.567 34.372 c -28.692 61.724 -23.266 100.422 16.275 116.094 c 59.313 23.508 200.347 32.911 259.299 83.906 c 58.95 50.994 238.697 11.572 269.438 -75.95 C 1310.32 70.9 1365.669 -64 1073.808 -64 c -194.576 0 -307.654 32.79 -339.24 98.372 h -0.001 z" stroke-linecap="round"/>
</g>
		<g transform="matrix(2.35 0 0.9734 2.35 519.1603 -18.2253)">
<path style="stroke: none; stroke-width: 1; stroke-dasharray: none; stroke-linecap: butt; stroke-dashoffset: 0; stroke-linejoin: miter; stroke-miterlimit: 4; is-custom-font: none; font-file-url: none; fill: rgb(169,190,218); fill-rule: nonzero; opacity: 1;" transform=" translate(-1010.735, -96.4999)" d="M 734.567 34.372 c -28.692 61.724 -23.266 100.422 16.275 116.094 c 59.313 23.508 200.347 32.911 259.299 83.906 c 58.95 50.994 238.697 11.572 269.438 -75.95 C 1310.32 70.9 1365.669 -64 1073.808 -64 c -194.576 0 -307.654 32.79 -339.24 98.372 h -0.001 z" stroke-linecap="round"/>
</g>
		<g transform="matrix(2.2 0 0.8007 2.2 500.8877 -37.7003)">
<path style="stroke: none; stroke-width: 1; stroke-dasharray: none; stroke-linecap: butt; stroke-dashoffset: 0; stroke-linejoin: miter; stroke-miterlimit: 4; is-custom-font: none; font-file-url: none; fill: rgb(154,173,206); fill-rule: nonzero; opacity: 1;" transform=" translate(-1010.735, -96.4999)" d="M 734.567 34.372 c -28.692 61.724 -23.266 100.422 16.275 116.094 c 59.313 23.508 200.347 32.911 259.299 83.906 c 58.95 50.994 238.697 11.572 269.438 -75.95 C 1310.32 70.9 1365.669 -64 1073.808 -64 c -194.576 0 -307.654 32.79 -339.24 98.372 h -0.001 z" stroke-linecap="round"/>
</g>
		<g transform="matrix(2.05 0 0.6464 2.05 484.3806 -57.1752)">
<path style="stroke: none; stroke-width: 1; stroke-dasharray: none; stroke-linecap: butt; stroke-dashoffset: 0; stroke-linejoin: miter; stroke-miterlimit: 4; is-custom-font: none; font-file-url: none; fill: rgb(139,155,193); fill-rule: nonzero; opacity: 1;" transform=" translate(-1010.735, -96.4999)" d="M 734.567 34.372 c -28.692 61.724 -23.266 100.422 16.275 116.094 c 59.313 23.508 200.347 32.911 259.299 83.906 c 58.95 50.994 238.697 11.572 269.438 -75.95 C 1310.32 70.9 1365.669 -64 1073.808 -64 c -194.576 0 -307.654 32.79 -339.24 98.372 h -0.001 z" stroke-linecap="round"/>
</g>
		<g transform="matrix(1.9 0 0.5091 1.9 469.5249 -76.6502)">
<path style="stroke: none; stroke-width: 1; stroke-dasharray: none; stroke-linecap: butt; stroke-dashoffset: 0; stroke-linejoin: miter; stroke-miterlimit: 4; is-custom-font: none; font-file-url: none; fill: rgb(125,138,181); fill-rule: nonzero; opacity: 1;" transform=" translate(-1010.735, -96.4999)" d="M 734.567 34.372 c -28.692 61.724 -23.266 100.422 16.275 116.094 c 59.313 23.508 200.347 32.911 259.299 83.906 c 58.95 50.994 238.697 11.572 269.438 -75.95 C 1310.32 70.9 1365.669 -64 1073.808 -64 c -194.576 0 -307.654 32.79 -339.24 98.372 h -0.001 z" stroke-linecap="round"/>
</g>
		<g transform="matrix(1.75 0 0.388 1.75 456.2249 -96.1252)">
<path style="stroke: none; stroke-width: 1; stroke-dasharray: none; stroke-linecap: butt; stroke-dashoffset: 0; stroke-linejoin: miter; stroke-miterlimit: 4; is-custom-font: none; font-file-url: none; fill: rgb(110,121,169); fill-rule: nonzero; opacity: 1;" transform=" translate(-1010.735, -96.4999)" d="M 734.567 34.372 c -28.692 61.724 -23.266 100.422 16.275 116.094 c 59.313 23.508 200.347 32.911 259.299 83.906 c 58.95 50.994 238.697 11.572 269.438 -75.95 C 1310.32 70.9 1365.669 -64 1073.808 -64 c -194.576 0 -307.654 32.79 -339.24 98.372 h -0.001 z" stroke-linecap="round"/>
</g>
		<g transform="matrix(1.6 0 0.2821 1.6 444.4008 -115.6002)">
<path style="stroke: none; stroke-width: 1; stroke-dasharray: none; stroke-linecap: butt; stroke-dashoffset: 0; stroke-linejoin: miter; stroke-miterlimit: 4; is-custom-font: none; font-file-url: none; fill: rgb(95,103,156); fill-rule: nonzero; opacity: 1;" transform=" translate(-1010.735, -96.4999)" d="M 734.567 34.372 c -28.692 61.724 -23.266 100.422 16.275 116.094 c 59.313 23.508 200.347 32.911 259.299 83.906 c 58.95 50.994 238.697 11.572 269.438 -75.95 C 1310.32 70.9 1365.669 -64 1073.808 -64 c -194.576 0 -307.654 32.79 -339.24 98.372 h -0.001 z" stroke-linecap="round"/>
</g>
		<g transform="matrix(1.45 0 0.1909 1.45 433.9871 -135.0752)">
<path style="stroke: none; stroke-width: 1; stroke-dasharray: none; stroke-linecap: butt; stroke-dashoffset: 0; stroke-linejoin: miter; stroke-miterlimit: 4; is-custom-font: none; font-file-url: none; fill: rgb(80,86,144); fill-rule: nonzero; opacity: 1;" transform=" translate(-1010.735, -96.4999)" d="M 734.567 34.372 c -28.692 61.724 -23.266 100.422 16.275 116.094 c 59.313 23.508 200.347 32.911 259.299 83.906 c 58.95 50.994 238.697 11.572 269.438 -75.95 C 1310.32 70.9 1365.669 -64 1073.808 -64 c -194.576 0 -307.654 32.79 -339.24 98.372 h -0.001 z" stroke-linecap="round"/>
</g>
		<g transform="matrix(1.3 0 0.1137 1.3 424.9309 -154.5502)">
<path style="stroke: none; stroke-width: 1; stroke-dasharray: none; stroke-linecap: butt; stroke-dashoffset: 0; stroke-linejoin: miter; stroke-miterlimit: 4; is-custom-font: none; font-file-url: none; fill: rgb(65,69,132); fill-rule: nonzero; opacity: 1;" transform=" translate(-1010.735, -96.4999)" d="M 734.567 34.372 c -28.692 61.724 -23.266 100.422 16.275 116.094 c 59.313 23.508 200.347 32.911 259.299 83.906 c 58.95 50.994 238.697 11.572 269.438 -75.95 C 1310.32 70.9 1365.669 -64 1073.808 -64 c -194.576 0 -307.654 32.79 -339.24 98.372 h -0.001 z" stroke-linecap="round"/>
</g>
		<g transform="matrix(1.15 0 0.0502 1.15 417.1904 -174.0251)">
<path style="stroke: none; stroke-width: 1; stroke-dasharray: none; stroke-linecap: butt; stroke-dashoffset: 0; stroke-linejoin: miter; stroke-miterlimit: 4; is-custom-font: none; font-file-url: none; fill: rgb(50,51,119); fill-rule: nonzero; opacity: 1;" transform=" translate(-1010.735, -96.4999)" d="M 734.567 34.372 c -28.692 61.724 -23.266 100.422 16.275 116.094 c 59.313 23.508 200.347 32.911 259.299 83.906 c 58.95 50.994 238.697 11.572 269.438 -75.95 C 1310.32 70.9 1365.669 -64 1073.808 -64 c -194.576 0 -307.654 32.79 -339.24 98.372 h -0.001 z" stroke-linecap="round"/>
</g>
</g>
</g>
</svg>